# xmcd
#
# Track frame offsets:
#	150
#	3252
#	21205
#	22485
#	44490
#	62435
#
# Disc length: 1123 seconds
#
# Revision: 1
# Processed by: cddbd v1.5.1PL0 Copyright (c) Steve Scherf et al.
# Submitted via: CDex 1.50Beta5
#
DISCID=47046106
DTITLE=山本麻里安 - セラフィムコールEDテーマコレクション 橘うらら〜栗本雪菜
DYEAR=2000
DGENRE=
TTITLE0=山本麻里安/橘うらら 予告セリフ
TTITLE1=山本麻里安/Yes it’s my true love
TTITLE2=笠原弘子/栗本雪菜 予告セリフ
TTITLE3=笠原弘子/夢みてもいいじゃない
TTITLE4=Yes it’s my true love
TTITLE5=夢みてもいいじゃない
EXTD=
EXTT0=
EXTT1=
EXTT2=
EXTT3=
EXTT4=
EXTT5=
PLAYORDER=
